# AST/ASF file generated using VICON BodyLanguage
# -----------------------------------------------
:version 1.10
:name VICON
:units
  mass 1.0
  length 0.45
  angle deg
:documentation
   .ast/.asf automatically generated from VICON data using
   VICON BodyBuilder and BodyLanguage model FoxedUp or BRILLIANT.MOD
:root
   order TX TY TZ RX RY RZ
   axis XYZ
   position 0 0 0  
   orientation 0 0 0 
:bonedata
  begin
     id 1 
     name lhipjoint
     direction 0.547975 -0.797114 0.253638 
     length 2.36201 
     axis 0 0 0  XYZ
  end
  begin
     id 2 
     name lfemur
     direction 0.34202 -0.939693 0  
     length 7.69075  
     axis 0 0 20  XYZ
    dof rx ry rz
    limits (-160.0 20.0)
           (-70.0 70.0)
           (-60.0 70.0)
  end
  begin
     id 3 
     name ltibia
     direction 0.34202 -0.939693 0   
     length 7.91399   
     axis 0 0 20   XYZ
    dof rx
    limits (-10.0 170.0)
  end
  begin
     id 4 
     name lfoot
     direction 0.0705293 -0.193778 0.978507   
     length 2.13618   
     axis -90 7.62852e-016 20   XYZ
    dof rx rz
    limits (-45.0 90.0)
           (-70.0 20.0)
  end
  begin
     id 5 
     name ltoes
     direction 1.53592e-011 -4.21925e-011 1   
     length 1.07518   
     axis -90 7.62852e-016 20   XYZ
    dof rx
    limits (-90.0 20.0)
  end
  begin
     id 6 
     name rhipjoint
     direction -0.57 -0.782963 0.249136   
     length 2.4047  
     axis 0 0 0  XYZ 
  end
  begin
     id 7 
     name rfemur
     direction -0.34202 -0.939693 0   
     length 7.51486   
     axis 0 0 -20   XYZ
    dof rx ry rz
    limits (-160.0 20.0)
           (-70.0 70.0)
           (-70.0 60.0)
  end
  begin
     id 8 
     name rtibia
     direction -0.34202 -0.939693 0   
     length 8.08317   
     axis 0 0 -20   XYZ
    dof rx
    limits (-10.0 170.0)
 end
 begin
     id 9 
     name rfoot
     direction -0.104954 -0.281256 0.953876   
     length 2.30343  
     axis -90 -7.62852e-016 -20   XYZ
    dof rx rz
    limits (-45.0 90.0)
           (-20.0 70.0)
  end
  begin
     id 10 
     name rtoes
     direction -1.53556e-011 -4.21922e-011 1   
     length 1.14803   
     axis -90 -7.62852e-016 -20   XYZ
    dof rx
    limits (-90.0 20.0)
  end
  begin
     id 11 
     name lowerback
     direction -0.0152855 0.99353 -0.11254   
     length 2.05311   
     axis 0 0 0   XYZ
    dof rx ry rz
    limits (-20.0 45.0)
           (-30.0 30.0)
           (-30.0 30.0)
  end
  begin
     id 12 
     name upperback
     direction -0.00157509 0.999443 -0.033332   
     length 2.06353   
     axis 0 0 0   XYZ
    dof rx ry rz
    limits (-20.0 45.0)
           (-30.0 30.0)
           (-30.0 30.0)
  end
  begin
     id 13 
     name thorax
     direction 0.00577788 0.999804 0.0189484   
     length 2.08472   
     axis 0 0 0   XYZ
    dof rx ry rz
    limits (-20.0 45.0)
           (-30.0 30.0)
           (-30.0 30.0)
  end
  begin
     id 14 
     name lowerneck
     direction -1.09301e-005 0.994719 0.10264   
     length 1.76249   
     axis 0 0 0   XYZ
    dof rx ry rz
    limits (-20.0 45.0)
           (-30.0 30.0)
           (-30.0 30.0)
  end
  begin
     id 15 
     name upperneck
     direction 0.0495018 0.988526 -0.142706   
     length 1.77897   
     axis 0 0 0   XYZ
    dof rx ry rz
    limits (-20.0 45.0)
           (-30.0 30.0)
           (-30.0 30.0)
  end
  begin
     id 16
     name head
     direction 0.0142736 0.998114 -0.0597101  
     length 1.78934  
     axis 0 0 0   XYZ
    dof rx ry rz
    limits (-20.0 45.0)
           (-30.0 30.0)
           (-30.0 30.0)
  end
  begin
     id 17 
     name lclavicle
     direction 0.918111 0.396107 -0.0130883  
     length 3.37276  
     axis 0 0 0   XYZ
    dof ry rz
    limits (-20.0 10.0)
           (0.0 20.0)
  end
  begin
     id 18 
     name lhumerus
     direction 1 -4.48975e-011 -3.26108e-027   
     length 5.34298   
     axis 180 -30 -90   XYZ
    dof rx ry rz
    limits (-60.0 90.0)
           (-90.0 90.0)
           (-90.0 90.0)
  end
  begin
     id 19
     name lradius
     direction 1 -4.48964e-011 -8.84413e-028   
     length 3.67262   
     axis 180 -30 -90   XYZ
    dof rx
    limits (-10.0 170.0)
  end
  begin
     id 20
     name lwrist
     direction 1 -4.48991e-011 -1.24264e-027   
     length 1.83631   
     axis -2.17013e-015 90 90   XYZ
    dof ry
    limits (-180.0 0.0)
 end
  begin
     id 21 
     name lhand
     direction 1 -4.48855e-011 -2.48528e-027   
     length 0.599298   
     axis 1.58582e-015 90 90   XYZ
    dof rx rz
    limits (-90.0 90.0)
           (-45.0 45.0)
  end
  begin
     id 22 
     name lfingers
     direction 1 -4.48811e-011 -4.97056e-027   
     length 0.48317   
     axis 3.17164e-015 90 90   XYZ
    dof rx
    limits (0.0 90.0)
  end
  begin
     id 23
     name lthumb
     direction 0.707107 -6.34882e-011 0.707107   
     length 0.693738   
     axis -90 45 2.85299e-015   XYZ
    dof rx rz
    limits (-45.0 45.0)
           (-45.0 45.0)
  end
  begin
     id 24 
     name rclavicle
     direction -0.920511 0.384752 -0.0680135   
     length 3.43787  
     axis 0 0 0   XYZ 
    dof ry rz
    limits (-10.0 20.0)
           (-20.0 0.0)
  end
  begin
     id 25 
     name rhumerus
     direction -0.999976 -0.00330524 0.00603274  
     length 5.5498   
     axis 180 30 90   XYZ
    dof rx ry rz
    limits (-90.0 60.0)
           (-90.0 90.0)
           (-90.0 90.0)
  end
  begin
     id 26 
     name rradius
     direction -1 -4.48967e-011 8.62438e-027   
     length 3.69401   
     axis 180 30 90   XYZ
    dof rx
    limits (-10.0 170.0)
  end
  begin
     id 27 
     name rwrist
     direction -1 -4.4897e-011 9.54866e-027   
     length 1.84701   
     axis -7.69462e-015 -90 -90   XYZ
    dof ry
    limits (-180.0 0.0)
  end
  begin
     id 28
     name rhand
     direction -1 -4.48982e-011 1.90973e-026   
     length 0.638113   
     axis -1.21857e-014 -90 -90   XYZ
    dof rx rz
    limits (-90.0 90.0)
           (-45.0 45.0)
  end
  begin
     id 29
     name rfingers
     direction -1 -4.48936e-011 3.81946e-026   
     length 0.514463   
     axis -2.43714e-014 -90 -90   XYZ
    dof rx
    limits (0.0 90.0)
  end
  begin
     id 30
     name rthumb
     direction -0.707107 -6.34942e-011 0.707107   
     length 0.738669   
     axis -90 -45 -2.85299e-015   XYZ
    dof rx rz
    limits (-45.0 45.0)
           (-45.0 45.0)
  end
:hierarchy
  begin
    root lhipjoint rhipjoint lowerback
    lhipjoint lfemur
    lfemur ltibia
    ltibia lfoot
    lfoot ltoes
    rhipjoint rfemur
    rfemur rtibia
    rtibia rfoot
    rfoot rtoes
    lowerback upperback
    upperback thorax
    thorax lowerneck lclavicle rclavicle
    lowerneck upperneck
    upperneck head
    lclavicle lhumerus
    lhumerus lradius
    lradius lwrist
    lwrist lhand lthumb
    lhand lfingers
    rclavicle rhumerus
    rhumerus rradius
    rradius rwrist
    rwrist rhand rthumb
    rhand rfingers
  end

#!OML:ASF F:\twosubjects\two\Thursday\Session 1\Rory.ASF
:FULLY-SPECIFIED
:DEGREES
33
root 7.49455 10.8006 7.21265 173.363 -5.75655 -179.011
lowerback 31.6795 1.15021 -0.594276
upperback 9.50809 -1.48858 -1.76356
thorax -6.58537 -1.7793 -0.973706
lowerneck -15.477 -5.14468 -5.38389
upperneck -0.238203 -6.81128 9.3465
head 2.91541 -3.23954 3.22655
rclavicle 7.95139e-015 3.81667e-014
rhumerus 20.6052 13.2373 -75.9031
rradius 77.1025
rwrist 25.24
rhand -11.2348 23.3693
rfingers 7.12502
rthumb 14.7943 -6.08263
lclavicle 7.95139e-015 3.81667e-014
lhumerus 37.3989 -24.4944 63.9999
lradius 65.5129
lwrist -17.8473
lhand -10.6872 36.6854
lfingers 7.12502
lthumb 15.3218 66.0978
rfemur -66.6761 -19.5999 -5.71719
rtibia 109.173
rfoot -21.5717 -4.42132
rtoes -24.5458
lfemur -63.3848 26.8899 5.66789
ltibia 113.32
lfoot -28.1662 -4.38122
ltoes -21.5387
34
root 7.49688 10.8009 7.20976 173.345 -5.62253 -179.123
lowerback 31.6505 1.14347 -0.854507
upperback 9.58012 -1.58861 -1.62428
thorax -6.4852 -1.84052 -0.632411
lowerneck -15.4463 -5.02984 -5.858
upperneck -0.449431 -6.57714 9.45612
head 2.84901 -3.12958 3.35826
rclavicle 1.03368e-014 6.04305e-014
rhumerus 21.0258 13.7583 -75.8235
rradius 76.9925
rwrist 25.2243
rhand -11.5956 23.814
rfingers 7.12502
rthumb 14.4467 -5.66316
lclavicle 1.03368e-014 6.04305e-014
lhumerus 37.2821 -23.9921 64.0117
lradius 65.5416
lwrist -17.7156
lhand -10.3024 36.3526
lfingers 7.12502
lthumb 15.6924 65.7362
rfemur -66.7383 -19.4688 -5.76741
rtibia 109.166
rfoot -21.5159 -4.60574
rtoes -25.755
lfemur -63.2388 27.0203 5.6334
ltibia 113.302
lfoot -28.2228 -4.23301
ltoes -21.9632
35
root 7.49883 10.8043 7.20905 173.361 -5.5807 -179.076
lowerback 31.7073 1.04578 -0.83155
upperback 9.41063 -1.65766 -1.57828
thorax -6.70371 -1.85275 -0.565274
lowerneck -14.6606 -4.8712 -5.95909
upperneck -0.747451 -6.3417 9.40154
head 2.62154 -3.03162 3.39453
rclavicle -4.37326e-015 -2.38542e-015
rhumerus 20.821 14.119 -75.9464
rradius 76.9701
rwrist 25.168
rhand -11.6701 23.8308
rfingers 7.12502
rthumb 14.3749 -5.65142
lclavicle -4.37326e-015 -2.38542e-015
lhumerus 36.6942 -23.8563 64.2347
lradius 65.6279
lwrist -17.8092
lhand -10.8425 36.1498
lfingers 7.12502
lthumb 15.1722 65.5736
rfemur -66.8483 -19.3861 -5.64745
rtibia 109.184
rfoot -21.5034 -4.80827
rtoes -26.0425
lfemur -63.2086 27.0598 5.70816
ltibia 113.27
lfoot -28.2113 -4.27854
ltoes -21.7668
36
root 7.49853 10.8124 7.21032 173.36 -5.59436 -179.017
lowerback 31.7692 1.08351 -0.506091
upperback 9.53467 -1.55614 -1.66466
thorax -6.59533 -1.81911 -0.887783
lowerneck -15.3363 -4.90781 -5.55566
upperneck -0.359114 -6.45517 9.25974
head 2.83289 -3.07105 3.26086
rclavicle -1.98785e-015 4.6118e-014
rhumerus 20.9357 13.6298 -76.1437
rradius 77.0397
rwrist 25.2008
rhand -11.2983 23.2737
rfingers 7.12502
rthumb 14.7331 -6.18275
lclavicle -1.98785e-015 4.6118e-014
lhumerus 37.3005 -24.1257 63.7386
lradius 65.5632
lwrist -17.6567
lhand -11.6197 36.3883
lfingers 7.12502
lthumb 14.4234 65.8671
rfemur -66.8793 -19.2212 -5.59532
rtibia 109.191
rfoot -21.4917 -4.91626
rtoes -25.7055
lfemur -63.1717 26.9862 5.74812
ltibia 113.219
lfoot -28.1691 -4.33332
ltoes -21.2098
37
root 7.49777 10.8134 7.20814 173.425 -5.60596 -179.163
lowerback 31.6953 1.01085 -0.727175
upperback 9.42996 -1.67318 -1.58306
thorax -6.67778 -1.86124 -0.626093
lowerneck -14.9838 -4.78477 -5.91685
upperneck -0.232989 -6.22851 9.38856
head 2.81671 -2.94831 3.38173
rclavicle -4.37326e-015 1.59028e-015
rhumerus 20.9196 14.0588 -76.1265
rradius 77.0191
rwrist 25.1296
rhand -11.0953 23.0854
rfingers 7.12502
rthumb 14.9287 -6.35665
lclavicle -4.37326e-015 1.59028e-015
lhumerus 36.6798 -23.7234 64.3482
lradius 65.5777
lwrist -17.9802
lhand -11.2818 35.9716
lfingers 7.12502
lthumb 14.7491 65.4268
rfemur -66.9374 -19.1337 -5.81618
rtibia 109.219
rfoot -21.4895 -4.74905
rtoes -24.9603
lfemur -63.2154 26.9688 5.53766
ltibia 113.215
lfoot -28.2008 -4.14149
ltoes -21.5685
38
root 7.49656 10.8071 7.20512 173.544 -5.69343 -179.25
lowerback 31.5357 1.03563 -0.577486
upperback 9.48128 -1.59991 -1.67034
thorax -6.54961 -1.8258 -0.841569
lowerneck -15.1497 -4.89997 -5.50965
upperneck -0.151405 -6.45183 9.29565
head 2.86743 -3.05817 3.26606
rclavicle -2.18663e-014 -2.3059e-014
rhumerus 20.9624 13.7152 -76.1041
rradius 77.0167
rwrist 25.0199
rhand -11.4545 23.1879
rfingers 7.12502
rthumb 14.5826 -6.27942
lclavicle -2.18663e-014 -2.3059e-014
lhumerus 36.117 -23.5619 65.4733
lradius 65.8679
lwrist -18.9277
lhand -10.4449 35.1371
lfingers 7.12502
lthumb 15.5552 64.5315
rfemur -67.0619 -19.3222 -5.92902
rtibia 109.292
rfoot -21.4805 -4.6985
rtoes -24.9479
lfemur -63.4357 26.9447 5.35228
ltibia 113.264
lfoot -28.156 -3.93958
ltoes -21.9008
39
root 7.49424 10.8007 7.20333 173.57 -5.73362 -179.203
lowerback 31.5293 1.00698 -0.251899
upperback 9.5103 -1.54623 -1.73455
thorax -6.5175 -1.80008 -1.12196
lowerneck -15.3194 -5.01047 -5.15675
upperneck -0.0273729 -6.65439 9.14099
head 2.9279 -3.15693 3.14129
rclavicle -2.38542e-015 -1.66979e-014
rhumerus 21.0562 13.4231 -76.13
rradius 76.9559
rwrist 24.9787
rhand -11.6998 23.2719
rfingers 7.12502
rthumb 14.3463 -6.21238
lclavicle -2.38542e-015 -1.66979e-014
lhumerus 37.2191 -24.3262 63.6862
lradius 66.2829
lwrist -17.5013
lhand -10.5589 36.3339
lfingers 7.12502
lthumb 15.4454 65.7368
rfemur -66.9913 -19.4474 -5.92304
rtibia 109.31
rfoot -21.5756 -4.60367
rtoes -24.8024
lfemur -63.5319 26.9238 5.3914
ltibia 113.321
lfoot -28.0962 -3.90393
ltoes -21.7471
40
root 7.4933 10.7995 7.20318 173.499 -5.68682 -179.245
lowerback 31.7329 0.920706 -0.208609
upperback 9.42738 -1.63645 -1.71502
thorax -6.70705 -1.83897 -1.08701
lowerneck -15.0875 -4.93339 -5.31283
upperneck -0.0180734 -6.51419 9.08036
head 2.88739 -3.08904 3.16352
rclavicle -3.22031e-014 -4.77083e-015
rhumerus 21.102 13.6851 -76.1686
rradius 76.9559
rwrist 24.9872
rhand -11.7061 23.2299
rfingers 7.12502
rthumb 14.3402 -6.25479
lclavicle -3.22031e-014 -4.77083e-015
lhumerus 36.8861 -24.3135 63.3118
lradius 66.6307
lwrist -17.0699
lhand -10.7921 36.6684
lfingers 7.12502
lthumb 15.2208 66.0885
rfemur -66.7733 -19.3325 -6.03399
rtibia 109.248
rfoot -21.7403 -4.43155
rtoes -23.9756
lfemur -63.3992 26.9173 5.40938
ltibia 113.338
lfoot -28.1789 -4.0638
ltoes -21.8896
41
root 7.49372 10.804 7.20496 173.407 -5.65999 -179.324
lowerback 31.8973 0.872045 -0.294984
upperback 9.41046 -1.73178 -1.65713
thorax -6.80084 -1.88837 -0.933233
lowerneck -14.8827 -4.82544 -5.47257
upperneck -0.137383 -6.3321 8.98591
head 2.80751 -3.00754 3.17993
rclavicle -2.38542e-015 -8.74653e-015
rhumerus 21.1653 14.0098 -76.164
rradius 77.0488
rwrist 24.9335
rhand -11.7404 23.0045
rfingers 7.12502
rthumb 14.3072 -6.4826
lclavicle -2.38542e-015 -8.74653e-015
lhumerus 36.5322 -23.9492 63.7282
lradius 66.3993
lwrist -17.1905
lhand -10.8599 36.3338
lfingers 7.12502
lthumb 15.1554 65.7588
rfemur -66.6714 -19.2241 -6.15686
rtibia 109.244
rfoot -21.7661 -4.47591
rtoes -24.1852
lfemur -63.2206 26.8774 5.36259
ltibia 113.306
lfoot -28.2307 -4.20775
ltoes -21.9241
42
root 7.49526 10.8041 7.20453 173.519 -5.70182 -179.637
lowerback 31.7141 0.996651 -0.482606
upperback 9.64279 -1.69118 -1.72298
thorax -6.45156 -1.89462 -0.92106
lowerneck -15.6617 -4.89135 -5.16687
upperneck 0.0866345 -6.46353 8.74593
head 2.98443 -3.06667 3.03038
rclavicle 2.34566e-014 -2.38542e-015
rhumerus 21.6878 13.659 -76.2616
rradius 76.9064
rwrist 24.9981
rhand -11.8072 23.2096
rfingers 7.12502
rthumb 14.2428 -6.28203
lclavicle 2.34566e-014 -2.38542e-015
lhumerus 36.7591 -23.7539 63.9053
lradius 65.9237
lwrist -17.4345
lhand -10.9502 35.7788
lfingers 7.12502
lthumb 15.0685 65.2104
rfemur -66.8769 -19.3045 -6.48312
rtibia 109.332
rfoot -21.5661 -4.66995
rtoes -25.5532
lfemur -63.299 26.7827 5.00746
ltibia 113.32
lfoot -28.1037 -4.44906
ltoes -20.2242
43
root 7.49862 10.8037 7.20148 173.615 -5.70051 -179.758
lowerback 31.6183 0.974853 -0.644046
upperback 9.4051 -1.68757 -1.69952
thorax -6.67575 -1.86034 -0.801153
lowerneck -14.7576 -4.84526 -5.07921
upperneck 0.0833368 -6.38589 8.45801
head 2.82475 -3.03933 2.95187
rclavicle 9.14409e-015 3.97569e-015
rhumerus 21.2848 13.8273 -76.4753
rradius 76.8157
rwrist 24.9906
rhand -11.9492 23.3923
rfingers 7.12502
rthumb 14.1059 -6.10888
lclavicle 9.14409e-015 3.97569e-015
lhumerus 35.919 -23.8127 64.3212
lradius 65.7778
lwrist -17.7689
lhand -11.0414 35.5442
lfingers 7.12502
lthumb 14.9806 64.9824
rfemur -66.9752 -19.2632 -6.69829
rtibia 109.428
rfoot -21.7021 -4.03006
rtoes -23.5183
lfemur -63.3692 26.8276 4.92009
ltibia 113.349
lfoot -28.071 -4.78706
ltoes -18.5759
